HIERARCHY
ROOT hip
{
	OFFSET 0.000000 0.000000 0.000000 
	CHANNELS 6 Xposition Yposition Zposition Zrotation Xrotation Yrotation
	JOINT abdomen
	{
		OFFSET 0.000000 3.402643 0.000000 
		CHANNELS 3 Zrotation Xrotation Yrotation
		JOINT chest
		{
			OFFSET 0.000000 8.438565 -0.680529 
			CHANNELS 3 Zrotation Xrotation Yrotation
			JOINT neck
			{
				OFFSET 0.000000 10.207942 -0.272212 
				CHANNELS 3 Zrotation Xrotation Yrotation
				JOINT head
				{
					OFFSET 0.000000 3.130431 0.000000 
					CHANNELS 3 Zrotation Xrotation Yrotation
					End Site
					{
						OFFSET 0.000000 3.130435 0.000000 
					}
				}
			}
			JOINT lCollar
			{
				OFFSET 3.470700 6.669187 -0.816635 
				CHANNELS 3 Zrotation Xrotation Yrotation
				JOINT lShldr
				{
					OFFSET 3.198488 0.000000 0.000000 
					CHANNELS 3 Zrotation Xrotation Yrotation
					JOINT lForeArm
					{
						OFFSET 10.139888 0.000000 0.000000 
						CHANNELS 3 Zrotation Xrotation Yrotation
						JOINT lHand
						{
							OFFSET 8.370511 0.000000 0.000000 
							CHANNELS 3 Zrotation Xrotation Yrotation
							End Site
							{
								OFFSET 4.083176 0.000000 0.000000 
							}
						}
					}
				}
			}
			JOINT rCollar
			{
				OFFSET -3.470700 6.669187 -0.816635 
				CHANNELS 3 Zrotation Xrotation Yrotation
				JOINT rShldr
				{
					OFFSET -3.198488 0.000000 0.000000 
					CHANNELS 3 Zrotation Xrotation Yrotation
					JOINT rForeArm
					{
						OFFSET -10.139888 0.000000 0.000000 
						CHANNELS 3 Zrotation Xrotation Yrotation
						JOINT rHand
						{
							OFFSET -8.370511 0.000000 0.000000 
							CHANNELS 3 Zrotation Xrotation Yrotation
							End Site
							{
								OFFSET -4.083176 0.000000 0.000000 
							}
						}
					}
				}
			}
		}
	}
	JOINT lThigh
	{
		OFFSET 5.308129 -1.633274 1.361059 
		CHANNELS 3 Zrotation Xrotation Yrotation
		JOINT lShin
		{
			OFFSET -2.041588 -20.007561 0.000000 
			CHANNELS 3 Zrotation Xrotation Yrotation
			JOINT lFoot
			{
				OFFSET 0.000000 -19.190928 -1.224953 
				CHANNELS 3 Zrotation Xrotation Yrotation
				End Site
				{
					OFFSET 0.000000 -2.449906 4.627600 
				}
			}
		}
	}
	JOINT rThigh
	{
		OFFSET -5.308129 -1.633274 1.361059 
		CHANNELS 3 Zrotation Xrotation Yrotation
		JOINT rShin
		{
			OFFSET 2.041588 -20.007561 0.000000 
			CHANNELS 3 Zrotation Xrotation Yrotation
			JOINT rFoot
			{
				OFFSET 0.000000 -19.190928 -1.224953 
				CHANNELS 3 Zrotation Xrotation Yrotation
				End Site
				{
					OFFSET 0.000000 -2.449906 4.627600 
				}
			}
		}
	}
}
MOTION
Frames: 8
Frame Time: 0.033333
5.333941 46.306213 3.438147 0.588763 5.614924 -5.399303 -1.498524 4.383271 -7.649117 -2.904811 -3.160002 -3.734481 0.488686 2.333898 -0.146854 2.233268 -4.439998 16.999529 -9.520413 -0.768142 -4.749750 -58.355148 -9.893451 -3.608420 -17.509869 7.014939 -35.272331 2.601231 -26.303988 -10.096145 5.527238 10.001190 -2.775739 74.720703 -6.678909 17.220083 4.707461 16.088457 53.011597 -5.363456 -5.857776 4.509916 2.471115 -28.633686 -12.128549 -6.626653 34.176903 -0.285278 -1.874313 -13.243766 23.215389 -2.474128 -21.242657 9.449542 -3.661466 34.976765 3.682030 7.577065 -17.504023 -18.376600 
7.069143 43.400852 9.702997 -0.585219 10.087358 -9.135793 -1.513438 6.433319 -14.234680 -3.021678 -2.984130 -4.777108 0.127455 5.087873 -0.108938 3.791304 -6.138982 36.529716 -12.641733 -0.766533 -5.481997 -60.800381 -38.051868 -27.847330 -22.072456 24.940119 -68.090118 -4.355415 -37.050438 -12.138668 5.591804 10.006261 -4.872337 80.169800 -12.557539 22.902025 9.101150 22.800819 92.578468 -9.067632 -12.593444 4.557947 9.891638 -45.821365 -6.447764 -9.301409 48.305336 0.962287 -5.073010 -14.686938 23.219431 -3.257477 -23.426857 10.407372 -4.509324 47.800686 6.974835 10.033940 -32.408802 -25.571268 
8.472630 41.668106 15.130127 -0.776640 11.248970 -7.514635 -1.715411 7.877374 -17.880348 -3.931904 -3.195598 -4.019024 0.049206 7.109370 -0.152574 4.822774 -7.152585 44.010490 -15.154765 -0.713602 -6.121845 -83.743546 -46.629158 -59.323948 -12.378420 40.932674 -97.337776 -12.519525 -47.655357 -15.351043 5.313733 9.762221 -6.067669 83.148674 -17.966503 25.588461 6.290937 32.628529 121.331039 -13.786479 -15.763284 7.498462 16.392811 -53.948334 1.188209 -10.958301 51.626637 2.008958 -6.408029 -10.262599 18.110249 -9.393750 -16.951962 8.912304 5.772270 50.070263 -2.004905 10.948431 -41.447460 -30.060574 
9.164904 42.225010 18.540483 0.933262 6.239395 3.990516 -2.189559 8.050839 -15.758023 -6.226837 -4.087152 -0.123291 0.492572 7.568079 -0.367526 5.024967 -6.732080 28.705788 -16.328489 -0.656594 -6.584390 -93.856476 -42.741116 -68.823891 -5.377816 44.180325 -115.296364 -20.539251 -46.640030 -22.677784 4.461680 9.023771 -5.477293 79.017036 -23.072584 21.802555 11.264508 30.770475 127.414467 -20.545210 -12.203374 15.077688 4.469208 -45.244846 -4.627808 -11.288503 52.301796 2.271801 -1.445542 -13.378323 21.764851 -13.208160 -7.899009 6.903249 27.511780 45.442268 -25.320400 -0.738239 -28.793112 -27.912899 
9.484852 44.134861 20.493090 3.890238 -2.426041 23.485750 -2.618314 7.199587 -10.023191 -9.464191 -5.269500 4.972489 1.288772 6.951377 -0.712423 6.095652 -4.797070 0.102556 -16.558178 -0.635709 -6.923656 -92.419022 -38.020798 -63.604694 -6.800008 44.519215 -120.671463 -9.559873 -46.097218 -6.254658 3.373459 7.934146 -3.525467 69.006378 -27.847803 13.280003 21.672113 16.948574 120.287575 -29.403734 -5.623506 24.114498 -0.763346 -26.440277 -4.710582 -9.405556 46.370667 1.209908 2.420030 -17.096827 24.912884 -23.370972 -1.254395 5.909230 55.973969 44.158813 -43.828075 -21.479507 -1.217765 -22.879303 
9.857541 46.162807 21.769512 7.351167 -11.334310 47.068886 -2.748955 5.901456 -3.750813 -12.881941 -6.303459 8.922943 2.160167 5.972342 -1.035414 9.408037 -1.608932 -29.282629 -16.424393 -0.641179 -7.200641 -89.008049 -32.004787 -55.747860 -7.713942 47.984013 -120.727715 35.309372 -37.223476 54.467812 2.476082 6.707645 -0.962811 56.720753 -31.717442 3.214914 26.069229 -3.358439 112.801186 -36.984230 -0.768683 31.187780 5.259182 -11.930742 -2.883208 -7.294367 38.553223 0.161227 1.007413 -16.829185 20.292110 -36.727467 -9.438434 2.713031 99.426056 49.888611 -67.107674 -14.895421 7.568664 -17.603281 
10.334467 47.935242 22.303463 10.659659 -19.228750 70.853584 -2.960332 4.964104 0.988811 -15.641964 -7.140488 10.484535 2.911581 5.022832 -1.290291 13.093654 1.949947 -54.213203 -16.179108 -0.647619 -7.406958 -86.745842 -25.292604 -49.468758 -7.407883 52.913391 -118.233986 40.043072 -26.324942 65.356163 1.986148 5.641458 1.559203 45.465347 -34.134598 -5.926035 23.795193 -22.448799 106.507263 -38.780617 0.635552 34.086128 17.016821 -2.613833 -5.338066 -6.212459 31.685469 -0.239944 -0.375602 -14.123313 13.269441 -57.204578 -35.460270 -15.393435 145.058334 37.696571 -100.860001 -0.376026 9.692711 -18.018618 
10.873724 49.293858 21.816668 12.921657 -25.537073 90.533279 -3.765776 5.242627 2.394727 -16.821913 -7.837854 8.730010 3.379140 4.406411 -1.431796 14.449724 4.956135 -70.462318 -15.970155 -0.662422 -7.527642 -85.866081 -20.245443 -45.983456 -7.187739 56.654865 -115.413216 -3.397842 -27.711329 -0.580798 1.977405 5.020164 3.448028 38.852692 -35.198723 -11.558757 20.651005 -34.111996 104.636200 -31.231586 -2.593940 30.770060 29.218073 -0.766300 -8.382790 -4.721663 22.379705 -0.748538 -2.007984 -10.100685 12.508836 -98.335899 -35.254566 -44.041355 151.279358 32.965454 -107.092491 5.379824 21.240999 -17.811150 
